%
M48
M72
T01C0.0240
T02C0.0320
T03C0.0400
T04C0.0440
T05C0.1300
%
T01
X13294Y2891
X13294Y3891
X13294Y4891
T02
X15054Y5108
X15054Y4108
X15054Y3108
X18054Y3108
X19546Y2521
X19546Y1521
X21329Y1482
X21329Y2482
X18054Y4108
X18054Y5108
X18054Y6108
X15054Y6108
X11817Y7273
X8817Y7273
X5924Y4340
X2924Y4340
T03
X1487Y3336
X1487Y4336
X15719Y10352
X16719Y10352
T04
X9113Y10309
X9113Y11309
X9113Y9309
X5483Y6383
X6963Y5076
X10963Y5076
X10896Y2757
X6896Y2757
X1483Y6383
T05
X2213Y10309
M30
